<svg width="1200" height="800" viewBox="0 0 1200 800" fill="none" xmlns="http://www.w3.org/2000/svg">
  <defs>
    <linearGradient id="heroGradient" x1="0%" y1="0%" x2="100%" y2="100%">
      <stop offset="0%" stop-color="#10b981" stop-opacity="0.3"/>
      <stop offset="35%" stop-color="#059f69" stop-opacity="0.25"/>
      <stop offset="65%" stop-color="#047e57" stop-opacity="0.2"/>
      <stop offset="100%" stop-color="#3481f6" stop-opacity="0.15"/>
    </linearGradient>
    <radialGradient id="accentCircle" cx="50%" cy="50%" r="50%">
      <stop offset="0%" stop-color="#10b981" stop-opacity="0.1"/>
      <stop offset="100%" stop-color="#10b981" stop-opacity="0"/>
    </radialGradient>
  </defs>
  <!-- Base gradient background -->
  <rect width="1200" height="800" fill="url(#heroGradient)"/>
  
  <!-- Abstract shapes representing eco-transport -->
  <circle cx="200" cy="150" r="80" fill="url(#accentCircle)"/>
  <circle cx="1000" cy="300" r="120" fill="url(#accentCircle)"/>
  <circle cx="300" cy="600" r="60" fill="url(#accentCircle)"/>
  <circle cx="900" cy="650" r="90" fill="url(#accentCircle)"/>
  
  <!-- Bus illustration -->
  <g transform="translate(100, 400)">
    <rect x="0" y="20" width="120" height="60" rx="10" fill="#10b981" opacity="0.6"/>
    <circle cx="20" cy="90" r="12" fill="#374151"/>
    <circle cx="100" cy="90" r="12" fill="#374151"/>
    <rect x="10" y="30" width="15" height="20" rx="3" fill="#60a5fa" opacity="0.7"/>
    <rect x="35" y="30" width="15" height="20" rx="3" fill="#60a5fa" opacity="0.7"/>
    <rect x="60" y="30" width="15" height="20" rx="3" fill="#60a5fa" opacity="0.7"/>
    <rect x="85" y="30" width="15" height="20" rx="3" fill="#60a5fa" opacity="0.7"/>
  </g>
  
  <!-- Bicycle illustration -->
  <g transform="translate(800, 500)">
    <circle cx="30" cy="50" r="25" fill="none" stroke="#10b981" stroke-width="4" opacity="0.8"/>
    <circle cx="90" cy="50" r="25" fill="none" stroke="#10b981" stroke-width="4" opacity="0.8"/>
    <line x1="30" y1="50" x2="90" y2="50" stroke="#059f69" stroke-width="3"/>
    <line x1="60" y1="30" x2="60" y2="70" stroke="#059f69" stroke-width="3"/>
  </g>
  
  <!-- Trees -->
  <g transform="translate(50, 100)">
    <circle cx="0" cy="0" r="30" fill="#22c55e" opacity="0.6"/>
    <rect x="-5" y="25" width="10" height="35" fill="#8B4513" opacity="0.7"/>
  </g>
  
  <g transform="translate(1000, 150)">
    <circle cx="0" cy="0" r="35" fill="#22c55e" opacity="0.6"/>
    <rect x="-6" y="30" width="12" height="40" fill="#8B4513" opacity="0.7"/>
  </g>
</svg>
