<svg width="64" height="64" viewBox="0 0 64 64" fill="none" xmlns="http://www.w3.org/2000/svg">
  <defs>
    <linearGradient id="treeGradient" x1="0%" y1="0%" x2="100%" y2="100%">
      <stop offset="0%" stop-color="#10b981"/>
      <stop offset="50%" stop-color="#059f69"/>
      <stop offset="100%" stop-color="#047e57"/>
    </linearGradient>
  </defs>
  <rect width="64" height="64" rx="8" fill="url(#treeGradient)"/>
  <path d="M32 8C28.6863 8 26 10.6863 26 14V16H22C18.6863 16 16 18.6863 16 22C16 25.3137 18.6863 28 22 28H26V30H20C16.6863 30 14 32.6863 14 36C14 39.3137 16.6863 42 20 42H26V44H22C18.6863 44 16 46.6863 16 50C16 53.3137 18.6863 56 22 56H16C12.6863 56 10 58.6863 10 62C10 65.3137 12.6863 68 16 68H48C51.3137 68 54 65.3137 54 62C54 58.6863 51.3137 56 48 56H42C45.3137 56 48 53.3137 48 50C48 46.6863 45.3137 44 42 44H38V42H44C47.3137 42 50 39.3137 50 36C50 32.6863 47.3137 30 44 30H38V28H42C45.3137 28 48 25.3137 48 22C48 18.6863 45.3137 16 42 16H38V14C38 10.6863 35.3137 8 32 8Z" fill="white" opacity="0.9"/>
</svg>
